<svg xmlns="http://www.w3.org/2000/svg" version="1.1" id="icon-google" x="0" y="0" width="40" height="40" viewBox="155.25 226.15 339.46 339.7" enable-background="new 155.252 226.152 339.458 339.704" xml:space="preserve" preserveAspectRatio="xMidYMin meet"><path fill="#dd4b39" d="M267.32 437.73c-40.2-0.44-74.28 25.41-74.28 55.37 0 30.58 29.04 56.03 69.24 56.03 56.53 0 76.24-23.89 76.24-54.47 0-3.7-0.45-7.29-1.28-10.8 -4.42-17.29-22.03-26.78-43.86-41.95C285.44 439.34 276.7 437.83 267.32 437.73zM255.98 242.43c-26.98-0.8-45.08 26.32-40.42 61.77 4.66 35.44 30.3 60.19 57.29 61 26.98 0.8 42.5-22.01 37.85-57.45C306.05 272.32 282.96 243.24 255.98 242.43zM350.94 306.24c0 22.14-12.27 39.98-29.59 53.52 -16.9 13.19-20.1 18.73-20.1 29.96 0 9.58 20.2 23.85 29.48 30.82 32.33 24.25 38.89 39.51 38.89 69.84 0 37.84-40.79 75.47-107.11 75.47 -58.17 0-107.25-23.67-107.25-61.49 0-38.42 40.72-78.45 98.89-78.45 6.34 0 12.15-0.16 18.16-0.16 -7.96-7.74-14.39-14.41-14.39-26.12 0-6.95 2.22-13.57 5.32-19.51 -3.17 0.23-6.39 0.39-9.71 0.39 -47.78 0-75.6-33.56-75.6-75.68 0-41.21 42.33-78.67 93.15-78.67 26.19 0 100.12 0 100.12 0l-22.37 23.48h-26.28C341.07 260.25 350.94 282.14 350.94 306.24zM448.51 300.05v46.19H425.42v-46.19h-46.19V276.96h46.19v-46.2h23.09v46.2h46.2v23.09H448.51z"/></svg>