<svg xmlns="http://www.w3.org/2000/svg" id="icon-reddit" version="1.1" x="0px" y="0px" width="40" height="40" viewBox="116.287 223.905 379.438 318.663" enable-background="new 116.287 223.905 379.438 318.663" xml:space="preserve"><path fill="#ff5700" d="M367.689 478.088c-0.11-0.159-0.202-0.294-0.313-0.44 -0.551-0.937-1.194-1.456-1.194-1.456v0.012c-4.89-5.006-11.175-0.416-16.34 3.312 -6.824 4.891-13.646 7.454-21.896 8.874 -17.209 3.005-36.139 2.54-52.962-2.381 -5.673-1.658-11.065-3.983-15.729-7.662 -2.252-1.787-4.712-4.271-7.662-4.815 -2.748-0.496-4.939 1.377-6.567 3.415 -0.03 0.029-0.043 0.055-0.085 0.098 -0.282 0.343-0.539 0.697-0.777 1.04 0 0.142-0.012 0.27-0.024 0.41 -0.343 1.034-0.521 2.534 0.202 4.479 0.184 0.552 0.441 1.077 0.881 1.562 1.089 1.261 2.24 2.44 3.47 3.562 2.509 2.252 5.275 4.224 8.207 5.881 3.874 2.197 8.023 3.874 12.271 5.245v0.057c0 0 8.519 3.15 22.228 4.663 0.043 0 0.067 0.023 0.086 0.023 0.012 0 0.024 0 0.024 0 7.65 0.826 16.885 1.12 27.187 0.08 0.904-0.043 1.799-0.099 2.691-0.202 2.229-0.313 4.462-0.643 6.658-1.034 0.337-0.079 0.68-0.146 1.028-0.201 1.433-0.258 2.883-0.521 4.309-0.826 0.337-0.08 0.644-0.185 0.979-0.257 0.257-0.057 0.508-0.08 0.753-0.147v-0.023c6.872-1.604 13.672-3.855 19.815-7.345 3.164-1.8 6.15-3.94 8.813-6.45 0.478-0.44 0.869-0.925 1.321-1.401 0.36-0.307 0.723-0.644 1.107-1.107 0.141-0.159 0.238-0.312 0.361-0.465 0.194-0.239 0.416-0.416 0.624-0.643 0.28-0.361 0.439-0.826 0.538-1.348 0.668-1.743 0.44-3.188-0.024-4.26C367.689 478.247 367.689 478.137 367.689 478.088zM274.586 408.919c0-14.192-11.493-25.685-25.673-25.685 -14.186 0-25.673 11.493-25.673 25.685 0 14.162 11.493 25.655 25.673 25.655C263.093 434.574 274.586 423.087 274.586 408.919zM363.204 383.234c-14.188 0-25.674 11.493-25.674 25.685 0 14.162 11.493 25.655 25.674 25.655 14.174 0 25.667-11.493 25.667-25.655C388.871 394.727 377.378 383.234 363.204 383.234zM473.603 417.598c0.588 3.874 0.925 7.784 0.925 11.738 0 62.521-76.506 113.231-170.864 113.231 -94.395 0-170.883-50.704-170.883-113.231 0-4.835 0.625-9.584 1.494-14.271 -10.845-7.853-17.987-20.54-17.987-34.977 0-23.88 19.37-43.244 43.231-43.244 10.441 0 19.872 3.855 27.356 10.012 30.447-18.923 71.261-30.625 116.292-30.704l29.902-84.211 66.923 15.41c5.188-13.678 18.329-23.446 33.831-23.446 20.037 0 36.272 16.249 36.272 36.285 0 20.037-16.241 36.261-36.272 36.261 -19.614 0-35.473-15.576-36.157-34.994l-54.101-13.911 -24.945 69.088c40.552 2.35 77.058 14.021 104.53 31.849 7.717-7.167 17.985-11.64 29.345-11.64 23.868 0 43.231 19.37 43.231 43.244C495.727 396.257 486.729 410.188 473.603 417.598z"/></svg>