<svg xmlns="http://www.w3.org/2000/svg" id="icon-rss" version="1.1" x="0px" y="0px" width="40" height="40" viewBox="181.128 248.379 281.912 274.807" enable-background="new 181.128 248.379 281.912 274.807" xml:space="preserve" preserveAspectRatio="xMidYMin meet"><path fill="#231F20" d="M216.52 523.186h-0.123c-19.039 0-34.553-15.488-34.627-34.521 -0.012-19.089 15.478-34.688 34.554-34.762 19.174 0 34.694 15.478 34.719 34.521C251.104 507.513 235.632 523.101 216.52 523.186zM317.469 522.794c-2.454-72.553-59.866-127.045-135.95-128.912l-0.122-46.953c101.531 2.185 180.455 78.22 183.085 175.711L317.469 522.794zM416.031 522.427c-2.729-126.567-104.713-225.326-234.775-227.083l-0.128-46.965c156.403 1.683 279.104 120.999 281.912 273.845L416.031 522.427z"/></svg>