<svg xmlns="http://www.w3.org/2000/svg" id="icon-twitter" version="1.1" x="0" y="0" width="40" height="40" viewBox="128.41 249.12 379.65 308.52" enable-background="new 128.41 249.121 379.646 308.525" xml:space="preserve"><path fill="#55acee" d="M469.2 325.96c0.14 3.35 0.23 6.71 0.23 10.07 0 102.93-78.34 221.61-221.61 221.61 -43.99 0-84.93-12.89-119.4-34.99 6.1 0.71 12.3 1.08 18.59 1.08 36.49 0 70.07-12.45 96.74-33.34 -34.09-0.62-62.86-23.15-72.77-54.09 4.76 0.91 9.63 1.4 14.66 1.4 7.11 0 13.98-0.95 20.53-2.73 -35.63-7.15-62.48-38.64-62.48-76.37 0-0.32 0-0.65 0-0.98 10.51 5.84 22.52 9.34 35.29 9.75 -20.91-13.97-34.65-37.81-34.65-64.83 0-14.27 3.84-27.66 10.54-39.16 38.42 47.12 95.82 78.14 160.55 81.39 -1.34-5.71-2.03-11.65-2.03-17.75 -0.01-43.03 34.89-77.9 77.9-77.9 22.4 0 42.65 9.46 56.85 24.6 17.75-3.49 34.41-9.98 49.46-18.9 -5.81 18.19-18.17 33.46-34.25 43.09 15.75-1.88 30.77-6.07 44.73-12.26C497.62 301.26 484.41 314.98 469.2 325.96z"/></svg>