<?xml version="1.0" encoding="utf-8"?>
<!-- Generator: Adobe Illustrator 15.1.0, SVG Export Plug-In . SVG Version: 6.00 Build 0)  -->
<!DOCTYPE svg PUBLIC "-//W3C//DTD SVG 1.1//EN" "http://www.w3.org/Graphics/SVG/1.1/DTD/svg11.dtd">
<svg version="1.1" id="Layer_1" xmlns="http://www.w3.org/2000/svg" xmlns:xlink="http://www.w3.org/1999/xlink" x="0px" y="0px"
	 width="612px" height="792px" viewBox="0 0 612 792" enable-background="new 0 0 612 792" xml:space="preserve">
<path fill="#231F20" d="M267.322,437.727c-40.203-0.441-74.279,25.41-74.279,55.373c0,30.576,29.04,56.029,69.236,56.029
	c56.531,0,76.237-23.893,76.237-54.469c0-3.696-0.453-7.295-1.279-10.802c-4.425-17.289-22.032-26.781-43.856-41.946
	C285.443,439.336,276.697,437.83,267.322,437.727z M255.981,242.431c-26.983-0.802-45.08,26.316-40.417,61.77
	c4.657,35.435,30.3,60.19,57.289,61.004c26.977,0.802,42.503-22.007,37.852-57.448C306.049,272.315,282.958,243.239,255.981,242.431
	z M350.939,306.244c0,22.136-12.271,39.976-29.591,53.52c-16.903,13.194-20.104,18.733-20.104,29.963
	c0,9.583,20.196,23.849,29.48,30.82c32.332,24.248,38.887,39.505,38.887,69.842c0,37.84-40.79,75.466-107.106,75.466
	c-58.171,0-107.253-23.666-107.253-61.494c0-38.421,40.717-78.452,98.887-78.452c6.34,0,12.148-0.165,18.158-0.165
	c-7.956-7.742-14.395-14.413-14.395-26.12c0-6.946,2.215-13.568,5.318-19.511c-3.17,0.227-6.389,0.392-9.712,0.392
	c-47.779,0-75.601-33.562-75.601-75.68c0-41.212,42.332-78.673,93.153-78.673c26.188,0,100.123,0,100.123,0l-22.368,23.482h-26.279
	C341.073,260.252,350.939,282.137,350.939,306.244z M448.511,300.051v46.193H425.42v-46.193h-46.194V276.96h46.194v-46.2h23.091
	v46.2h46.199v23.091H448.511z"/>
</svg>
