<?xml version="1.0" encoding="utf-8"?>
<!-- Generator: Adobe Illustrator 15.1.0, SVG Export Plug-In . SVG Version: 6.00 Build 0)  -->
<!DOCTYPE svg PUBLIC "-//W3C//DTD SVG 1.1//EN" "http://www.w3.org/Graphics/SVG/1.1/DTD/svg11.dtd">
<svg version="1.1" id="Layer_1" xmlns="http://www.w3.org/2000/svg" xmlns:xlink="http://www.w3.org/1999/xlink" x="0px" y="0px"
	 width="612px" height="792px" viewBox="0 0 612 792" enable-background="new 0 0 612 792" xml:space="preserve">
<path fill="#231F20" d="M367.689,478.088c-0.11-0.159-0.202-0.294-0.312-0.441c-0.551-0.936-1.194-1.456-1.194-1.456v0.012
	c-4.89-5.006-11.175-0.416-16.34,3.312c-6.824,4.89-13.647,7.454-21.897,8.874c-17.209,3.005-36.139,2.54-52.962-2.381
	c-5.673-1.658-11.065-3.984-15.729-7.662c-2.252-1.787-4.712-4.271-7.662-4.816c-2.748-0.496-4.939,1.377-6.567,3.415
	c-0.03,0.03-0.043,0.055-0.085,0.098c-0.282,0.343-0.539,0.697-0.777,1.04c0,0.142-0.012,0.27-0.024,0.41
	c-0.343,1.034-0.521,2.534,0.202,4.48c0.184,0.551,0.441,1.077,0.881,1.561c1.089,1.261,2.24,2.441,3.47,3.562
	c2.509,2.252,5.275,4.223,8.207,5.881c3.874,2.197,8.023,3.874,12.271,5.245v0.056c0,0,8.519,3.151,22.228,4.663
	c0.043,0,0.067,0.024,0.086,0.024c0.012,0,0.024,0,0.024,0c7.65,0.826,16.885,1.12,27.186,0.08c0.905-0.043,1.799-0.099,2.692-0.202
	c2.228-0.313,4.462-0.643,6.658-1.034c0.337-0.08,0.68-0.147,1.028-0.202c1.433-0.257,2.883-0.521,4.309-0.826
	c0.337-0.08,0.643-0.184,0.979-0.257c0.257-0.056,0.508-0.08,0.753-0.147v-0.024c6.872-1.604,13.672-3.855,19.816-7.344
	c3.164-1.8,6.15-3.941,8.813-6.45c0.478-0.441,0.869-0.925,1.322-1.402c0.36-0.306,0.722-0.643,1.107-1.107
	c0.141-0.159,0.238-0.312,0.361-0.465c0.195-0.239,0.416-0.416,0.624-0.643c0.281-0.361,0.44-0.826,0.538-1.347
	c0.668-1.744,0.441-3.188-0.024-4.26C367.689,478.247,367.689,478.137,367.689,478.088z M274.586,408.919
	c0-14.192-11.493-25.685-25.673-25.685c-14.186,0-25.673,11.493-25.673,25.685c0,14.162,11.493,25.655,25.673,25.655
	S274.586,423.087,274.586,408.919z M363.204,383.234c-14.187,0-25.674,11.493-25.674,25.685c0,14.162,11.493,25.655,25.674,25.655
	c14.174,0,25.667-11.493,25.667-25.655C388.871,394.727,377.378,383.234,363.204,383.234z M473.603,417.598
	c0.587,3.874,0.924,7.784,0.924,11.738c0,62.521-76.506,113.231-170.864,113.231c-94.395,0-170.883-50.704-170.883-113.231
	c0-4.835,0.625-9.584,1.494-14.272c-10.845-7.852-17.987-20.539-17.987-34.976c0-23.88,19.37-43.244,43.231-43.244
	c10.441,0,19.872,3.855,27.356,10.012c30.447-18.923,71.261-30.625,116.292-30.704l29.902-84.211l66.923,15.41
	c5.189-13.678,18.329-23.446,33.831-23.446c20.037,0,36.273,16.249,36.273,36.285c0,20.037-16.242,36.261-36.273,36.261
	c-19.614,0-35.472-15.576-36.157-34.994l-54.101-13.911l-24.945,69.088c40.552,2.35,77.058,14.021,104.53,31.849
	c7.717-7.167,17.986-11.64,29.345-11.64c23.868,0,43.232,19.37,43.232,43.244C495.727,396.257,486.729,410.187,473.603,417.598z"/>
</svg>
