<?xml version="1.0" encoding="utf-8"?>
<!-- Generator: Adobe Illustrator 15.1.0, SVG Export Plug-In . SVG Version: 6.00 Build 0)  -->
<!DOCTYPE svg PUBLIC "-//W3C//DTD SVG 1.1//EN" "http://www.w3.org/Graphics/SVG/1.1/DTD/svg11.dtd">
<svg version="1.1" id="Layer_1" xmlns="http://www.w3.org/2000/svg" xmlns:xlink="http://www.w3.org/1999/xlink" x="0px" y="0px"
	 width="612px" height="792px" viewBox="0 0 612 792" enable-background="new 0 0 612 792" xml:space="preserve">
<path fill="#231F20" d="M216.52,523.186h-0.123c-19.039,0-34.553-15.489-34.627-34.522c-0.012-19.089,15.478-34.688,34.554-34.762
	c19.174,0,34.694,15.478,34.719,34.522C251.104,507.513,235.632,523.101,216.52,523.186z M317.469,522.794
	c-2.454-72.553-59.866-127.045-135.95-128.912l-0.122-46.953c101.531,2.185,180.455,78.22,183.085,175.712L317.469,522.794z
	 M416.031,522.427c-2.729-126.567-104.713-225.326-234.775-227.083l-0.128-46.965c156.403,1.683,279.103,120.999,281.912,273.845
	L416.031,522.427z"/>
</svg>
