<?xml version="1.0" encoding="utf-8"?>
<!-- Generator: Adobe Illustrator 15.1.0, SVG Export Plug-In . SVG Version: 6.00 Build 0)  -->
<!DOCTYPE svg PUBLIC "-//W3C//DTD SVG 1.1//EN" "http://www.w3.org/Graphics/SVG/1.1/DTD/svg11.dtd">
<svg version="1.1" id="Layer_1" xmlns="http://www.w3.org/2000/svg" xmlns:xlink="http://www.w3.org/1999/xlink" x="0px" y="0px"
	 width="612px" height="792px" viewBox="0 0 612 792" enable-background="new 0 0 612 792" xml:space="preserve">
<path fill="#231F20" d="M469.196,325.963c0.141,3.348,0.226,6.708,0.226,10.073c0,102.927-78.342,221.611-221.611,221.611
	c-43.991,0-84.927-12.889-119.401-34.988c6.096,0.71,12.301,1.084,18.586,1.084c36.494,0,70.068-12.448,96.739-33.342
	c-34.088-0.625-62.859-23.146-72.773-54.089c4.755,0.905,9.633,1.401,14.657,1.401c7.111,0,13.984-0.955,20.526-2.735
	c-35.63-7.154-62.479-38.636-62.479-76.372c0-0.325,0-0.649,0-0.979c10.508,5.838,22.521,9.339,35.288,9.75
	c-20.906-13.966-34.651-37.81-34.651-64.835c0-14.272,3.837-27.663,10.544-39.156c38.416,47.118,95.815,78.14,160.552,81.39
	c-1.341-5.71-2.032-11.652-2.032-17.754c-0.006-43.03,34.885-77.901,77.896-77.901c22.399,0,42.65,9.455,56.849,24.603
	c17.748-3.495,34.413-9.976,49.462-18.905c-5.808,18.188-18.17,33.458-34.247,43.091c15.753-1.885,30.765-6.071,44.73-12.265
	C497.623,301.262,484.41,314.983,469.196,325.963z"/>
</svg>
